<mxfile host="app.diagrams.net" agent="Mozilla/5.0 (X11; Linux x86_64; rv:131.0) Gecko/20100101 Firefox/131.0" version="24.8.6">
  <diagram id="C5RBs43oDa-KdzZeNtuy" name="Page-1">
    <mxGraphModel dx="1436" dy="818" grid="0" gridSize="10" guides="1" tooltips="1" connect="1" arrows="1" fold="0" page="0" pageScale="1" pageWidth="827" pageHeight="1169" math="0" shadow="0">
      <root>
        <mxCell id="WIyWlLk6GJQsqaUBKTNV-0" />
        <mxCell id="WIyWlLk6GJQsqaUBKTNV-1" parent="WIyWlLk6GJQsqaUBKTNV-0" />
        <mxCell id="qVfFk3sxE2x1IZ7iYrnW-15" value="" style="rounded=0;whiteSpace=wrap;html=1;font-weight:bold;strokeWidth=3;perimeterSpacing=0;fillColor=#D6D6D6;fillStyle=solid;" parent="WIyWlLk6GJQsqaUBKTNV-1" vertex="1">
          <mxGeometry x="-50" y="110" width="660" height="700" as="geometry" />
        </mxCell>
        <mxCell id="DpbTsIQylc1d4dhlNPRi-38" value="" style="endArrow=none;html=1;rounded=0;entryX=0.25;entryY=1;entryDx=0;entryDy=0;exitX=0.25;exitY=0;exitDx=0;exitDy=0;" parent="WIyWlLk6GJQsqaUBKTNV-1" source="S_oMJGFzTZTvN_zWF7Dp-0" target="DpbTsIQylc1d4dhlNPRi-26" edge="1">
          <mxGeometry width="50" height="50" relative="1" as="geometry">
            <mxPoint x="300" y="370" as="sourcePoint" />
            <mxPoint x="300" y="300" as="targetPoint" />
          </mxGeometry>
        </mxCell>
        <mxCell id="DpbTsIQylc1d4dhlNPRi-39" value="&lt;b&gt;1..1&lt;/b&gt;" style="edgeLabel;html=1;align=center;verticalAlign=middle;resizable=0;points=[];labelBackgroundColor=#d6d6d6;" parent="DpbTsIQylc1d4dhlNPRi-38" vertex="1" connectable="0">
          <mxGeometry x="0.3501" relative="1" as="geometry">
            <mxPoint x="-20" y="-12" as="offset" />
          </mxGeometry>
        </mxCell>
        <mxCell id="GbrQn4fpmQiTkbEIg9Ye-0" style="edgeStyle=orthogonalEdgeStyle;rounded=0;orthogonalLoop=1;jettySize=auto;html=1;entryX=1.011;entryY=0.82;entryDx=0;entryDy=0;entryPerimeter=0;" parent="WIyWlLk6GJQsqaUBKTNV-1" source="S_oMJGFzTZTvN_zWF7Dp-0" target="DpbTsIQylc1d4dhlNPRi-49" edge="1">
          <mxGeometry relative="1" as="geometry" />
        </mxCell>
        <mxCell id="GbrQn4fpmQiTkbEIg9Ye-1" value="&lt;b&gt;1..1&lt;/b&gt;" style="edgeLabel;html=1;align=center;verticalAlign=middle;resizable=0;points=[];labelBackgroundColor=#d6d6d6;" parent="GbrQn4fpmQiTkbEIg9Ye-0" vertex="1" connectable="0">
          <mxGeometry x="-0.6937" relative="1" as="geometry">
            <mxPoint x="10" y="-18" as="offset" />
          </mxGeometry>
        </mxCell>
        <mxCell id="GbrQn4fpmQiTkbEIg9Ye-2" style="edgeStyle=orthogonalEdgeStyle;rounded=0;orthogonalLoop=1;jettySize=auto;html=1;entryX=0.5;entryY=1;entryDx=0;entryDy=0;fontStyle=1" parent="WIyWlLk6GJQsqaUBKTNV-1" source="DpbTsIQylc1d4dhlNPRi-49" target="DpbTsIQylc1d4dhlNPRi-8" edge="1">
          <mxGeometry relative="1" as="geometry" />
        </mxCell>
        <mxCell id="GbrQn4fpmQiTkbEIg9Ye-3" value="&lt;b&gt;0..*&lt;/b&gt;" style="edgeLabel;html=1;align=center;verticalAlign=middle;resizable=0;points=[];labelBackgroundColor=#d6d6d6;" parent="GbrQn4fpmQiTkbEIg9Ye-2" vertex="1" connectable="0">
          <mxGeometry x="-0.8661" relative="1" as="geometry">
            <mxPoint x="4" y="-9" as="offset" />
          </mxGeometry>
        </mxCell>
        <mxCell id="GbrQn4fpmQiTkbEIg9Ye-10" style="edgeStyle=orthogonalEdgeStyle;rounded=0;orthogonalLoop=1;jettySize=auto;html=1;exitX=0;exitY=0.5;exitDx=0;exitDy=0;entryX=1;entryY=0.5;entryDx=0;entryDy=0;" parent="WIyWlLk6GJQsqaUBKTNV-1" source="DpbTsIQylc1d4dhlNPRi-7" target="DpbTsIQylc1d4dhlNPRi-8" edge="1">
          <mxGeometry relative="1" as="geometry" />
        </mxCell>
        <mxCell id="GbrQn4fpmQiTkbEIg9Ye-11" value="envia" style="edgeLabel;html=1;align=center;verticalAlign=middle;resizable=0;points=[];labelBackgroundColor=#d6d6d6;fontStyle=1" parent="GbrQn4fpmQiTkbEIg9Ye-10" vertex="1" connectable="0">
          <mxGeometry x="-0.0271" relative="1" as="geometry">
            <mxPoint x="3" y="-12" as="offset" />
          </mxGeometry>
        </mxCell>
        <mxCell id="GbrQn4fpmQiTkbEIg9Ye-12" value="0..*" style="edgeLabel;html=1;align=center;verticalAlign=middle;resizable=0;points=[];labelBackgroundColor=#d6d6d6;fontStyle=1" parent="GbrQn4fpmQiTkbEIg9Ye-10" vertex="1" connectable="0">
          <mxGeometry x="-0.8525" y="1" relative="1" as="geometry">
            <mxPoint x="3" y="-13" as="offset" />
          </mxGeometry>
        </mxCell>
        <mxCell id="GbrQn4fpmQiTkbEIg9Ye-13" value="&lt;b&gt;1..1&lt;/b&gt;" style="edgeLabel;html=1;align=center;verticalAlign=middle;resizable=0;points=[];labelBackgroundColor=#d6d6d6;" parent="GbrQn4fpmQiTkbEIg9Ye-10" vertex="1" connectable="0">
          <mxGeometry x="0.796" y="2" relative="1" as="geometry">
            <mxPoint y="-14" as="offset" />
          </mxGeometry>
        </mxCell>
        <mxCell id="GbrQn4fpmQiTkbEIg9Ye-14" value="&lt;font style=&quot;font-size: 22px;&quot;&gt;Diagrama de Classe - &lt;b&gt;Visão Geral do Sistema&lt;br&gt;&lt;/b&gt;&lt;/font&gt;" style="text;html=1;align=center;verticalAlign=middle;resizable=0;points=[];autosize=1;strokeColor=none;fillColor=none;" parent="WIyWlLk6GJQsqaUBKTNV-1" vertex="1">
          <mxGeometry x="35" y="120" width="490" height="40" as="geometry" />
        </mxCell>
        <mxCell id="GbrQn4fpmQiTkbEIg9Ye-15" value="&lt;b&gt;&lt;font style=&quot;font-size: 22px;&quot;&gt;OpenVoice&lt;/font&gt;&lt;/b&gt; &lt;font style=&quot;font-size: 22px;&quot;&gt;- 1.0.0&lt;/font&gt;" style="text;html=1;align=center;verticalAlign=middle;resizable=0;points=[];autosize=1;strokeColor=none;fillColor=none;" parent="WIyWlLk6GJQsqaUBKTNV-1" vertex="1">
          <mxGeometry x="181" y="772" width="198" height="38" as="geometry" />
        </mxCell>
        <mxCell id="qVfFk3sxE2x1IZ7iYrnW-8" value="" style="group" parent="WIyWlLk6GJQsqaUBKTNV-1" vertex="1" connectable="0">
          <mxGeometry x="300" y="180" width="160" height="130" as="geometry" />
        </mxCell>
        <mxCell id="qVfFk3sxE2x1IZ7iYrnW-7" value="" style="whiteSpace=wrap;html=1;strokeColor=none;" parent="qVfFk3sxE2x1IZ7iYrnW-8" vertex="1">
          <mxGeometry y="26" width="160" height="104" as="geometry" />
        </mxCell>
        <mxCell id="DpbTsIQylc1d4dhlNPRi-26" value="Cadastro" style="swimlane;fontStyle=3;align=center;verticalAlign=top;childLayout=stackLayout;horizontal=1;startSize=26;horizontalStack=0;resizeParent=1;resizeLast=0;collapsible=1;marginBottom=0;rounded=0;shadow=0;strokeWidth=1;" parent="qVfFk3sxE2x1IZ7iYrnW-8" vertex="1">
          <mxGeometry width="160" height="130" as="geometry">
            <mxRectangle x="220" y="560" width="160" height="26" as="alternateBounds" />
          </mxGeometry>
        </mxCell>
        <mxCell id="DpbTsIQylc1d4dhlNPRi-27" value="# id: int" style="text;align=left;verticalAlign=top;spacingLeft=4;spacingRight=4;overflow=hidden;rotatable=0;points=[[0,0.5],[1,0.5]];portConstraint=eastwest;fillColor=none;strokeWidth=0;perimeterSpacing=1;labelBackgroundColor=none;" parent="DpbTsIQylc1d4dhlNPRi-26" vertex="1">
          <mxGeometry y="26" width="160" height="26" as="geometry" />
        </mxCell>
        <mxCell id="DpbTsIQylc1d4dhlNPRi-28" value="- email: String" style="text;align=left;verticalAlign=top;spacingLeft=4;spacingRight=4;overflow=hidden;rotatable=0;points=[[0,0.5],[1,0.5]];portConstraint=eastwest;rounded=0;shadow=0;html=0;fillColor=none;strokeWidth=0;perimeterSpacing=1;" parent="DpbTsIQylc1d4dhlNPRi-26" vertex="1">
          <mxGeometry y="52" width="160" height="26" as="geometry" />
        </mxCell>
        <mxCell id="DpbTsIQylc1d4dhlNPRi-29" value="- senha: String" style="text;align=left;verticalAlign=top;spacingLeft=4;spacingRight=4;overflow=hidden;rotatable=0;points=[[0,0.5],[1,0.5]];portConstraint=eastwest;rounded=0;shadow=0;html=0;fillColor=none;strokeWidth=0;perimeterSpacing=1;" parent="DpbTsIQylc1d4dhlNPRi-26" vertex="1">
          <mxGeometry y="78" width="160" height="26" as="geometry" />
        </mxCell>
        <mxCell id="DpbTsIQylc1d4dhlNPRi-36" value="- nome_de_usuario: String" style="text;align=left;verticalAlign=top;spacingLeft=4;spacingRight=4;overflow=hidden;rotatable=0;points=[[0,0.5],[1,0.5]];portConstraint=eastwest;rounded=0;shadow=0;html=0;fillColor=none;strokeWidth=0;perimeterSpacing=1;" parent="DpbTsIQylc1d4dhlNPRi-26" vertex="1">
          <mxGeometry y="104" width="160" height="26" as="geometry" />
        </mxCell>
        <mxCell id="qVfFk3sxE2x1IZ7iYrnW-12" value="" style="group" parent="WIyWlLk6GJQsqaUBKTNV-1" vertex="1" connectable="0">
          <mxGeometry x="130" y="680" width="170" height="80" as="geometry" />
        </mxCell>
        <mxCell id="qVfFk3sxE2x1IZ7iYrnW-9" value="" style="whiteSpace=wrap;html=1;fillColor=default;strokeColor=none;" parent="qVfFk3sxE2x1IZ7iYrnW-12" vertex="1">
          <mxGeometry y="20" width="170" height="60" as="geometry" />
        </mxCell>
        <mxCell id="DpbTsIQylc1d4dhlNPRi-48" value="Homepage" style="swimlane;fontStyle=3;align=center;verticalAlign=top;childLayout=stackLayout;horizontal=1;startSize=26;horizontalStack=0;resizeParent=1;resizeLast=0;collapsible=1;marginBottom=0;rounded=0;shadow=0;strokeWidth=1;" parent="qVfFk3sxE2x1IZ7iYrnW-12" vertex="1">
          <mxGeometry width="170" height="80" as="geometry">
            <mxRectangle x="220" y="560" width="160" height="26" as="alternateBounds" />
          </mxGeometry>
        </mxCell>
        <mxCell id="DpbTsIQylc1d4dhlNPRi-49" value="- Usuário: Usuário" style="text;align=left;verticalAlign=top;spacingLeft=4;spacingRight=4;overflow=hidden;rotatable=0;points=[[0,0.5],[1,0.5]];portConstraint=eastwest;fillColor=none;" parent="DpbTsIQylc1d4dhlNPRi-48" vertex="1">
          <mxGeometry y="26" width="170" height="26" as="geometry" />
        </mxCell>
        <mxCell id="DpbTsIQylc1d4dhlNPRi-61" value="- postagens: List&lt;Postagem&gt;" style="text;align=left;verticalAlign=top;spacingLeft=4;spacingRight=4;overflow=hidden;rotatable=0;points=[[0,0.5],[1,0.5]];portConstraint=eastwest;fillColor=none;" parent="DpbTsIQylc1d4dhlNPRi-48" vertex="1">
          <mxGeometry y="52" width="170" height="26" as="geometry" />
        </mxCell>
        <mxCell id="qVfFk3sxE2x1IZ7iYrnW-13" value="" style="group" parent="WIyWlLk6GJQsqaUBKTNV-1" vertex="1" connectable="0">
          <mxGeometry x="300" y="385" width="160" height="235" as="geometry" />
        </mxCell>
        <mxCell id="qVfFk3sxE2x1IZ7iYrnW-10" value="" style="whiteSpace=wrap;html=1;fillColor=default;strokeColor=none;" parent="qVfFk3sxE2x1IZ7iYrnW-13" vertex="1">
          <mxGeometry y="25" width="160" height="210" as="geometry" />
        </mxCell>
        <mxCell id="S_oMJGFzTZTvN_zWF7Dp-0" value="Usuário" style="swimlane;fontStyle=3;align=center;verticalAlign=top;childLayout=stackLayout;horizontal=1;startSize=26;horizontalStack=0;resizeParent=1;resizeLast=0;collapsible=1;marginBottom=0;rounded=0;shadow=0;strokeWidth=1;" parent="qVfFk3sxE2x1IZ7iYrnW-13" vertex="1">
          <mxGeometry width="160" height="235" as="geometry">
            <mxRectangle x="220" y="560" width="160" height="26" as="alternateBounds" />
          </mxGeometry>
        </mxCell>
        <mxCell id="S_oMJGFzTZTvN_zWF7Dp-1" value="# id: int" style="text;align=left;verticalAlign=top;spacingLeft=4;spacingRight=4;overflow=hidden;rotatable=0;points=[[0,0.5],[1,0.5]];portConstraint=eastwest;fillColor=none;" parent="S_oMJGFzTZTvN_zWF7Dp-0" vertex="1">
          <mxGeometry y="26" width="160" height="26" as="geometry" />
        </mxCell>
        <mxCell id="S_oMJGFzTZTvN_zWF7Dp-2" value="- email: String" style="text;align=left;verticalAlign=top;spacingLeft=4;spacingRight=4;overflow=hidden;rotatable=0;points=[[0,0.5],[1,0.5]];portConstraint=eastwest;rounded=0;shadow=0;html=0;fillColor=none;" parent="S_oMJGFzTZTvN_zWF7Dp-0" vertex="1">
          <mxGeometry y="52" width="160" height="26" as="geometry" />
        </mxCell>
        <mxCell id="S_oMJGFzTZTvN_zWF7Dp-3" value="- senha: String" style="text;align=left;verticalAlign=top;spacingLeft=4;spacingRight=4;overflow=hidden;rotatable=0;points=[[0,0.5],[1,0.5]];portConstraint=eastwest;rounded=0;shadow=0;html=0;fillColor=none;" parent="S_oMJGFzTZTvN_zWF7Dp-0" vertex="1">
          <mxGeometry y="78" width="160" height="26" as="geometry" />
        </mxCell>
        <mxCell id="DpbTsIQylc1d4dhlNPRi-1" value="" style="endArrow=none;html=1;rounded=0;exitX=1;exitY=0.5;exitDx=0;exitDy=0;entryX=0.5;entryY=0;entryDx=0;entryDy=0;" parent="S_oMJGFzTZTvN_zWF7Dp-0" source="S_oMJGFzTZTvN_zWF7Dp-3" target="S_oMJGFzTZTvN_zWF7Dp-0" edge="1">
          <mxGeometry width="50" height="50" relative="1" as="geometry">
            <mxPoint x="190" y="100" as="sourcePoint" />
            <mxPoint x="240" y="50" as="targetPoint" />
            <Array as="points">
              <mxPoint x="220" y="91" />
              <mxPoint x="220" y="-40" />
              <mxPoint x="80" y="-40" />
            </Array>
          </mxGeometry>
        </mxCell>
        <mxCell id="DpbTsIQylc1d4dhlNPRi-2" value="&lt;b&gt;administração&lt;/b&gt;" style="edgeLabel;html=1;align=center;verticalAlign=middle;resizable=0;points=[];labelBackgroundColor=#d6d6d6;" parent="DpbTsIQylc1d4dhlNPRi-1" vertex="1" connectable="0">
          <mxGeometry x="-0.1622" relative="1" as="geometry">
            <mxPoint x="40" y="-15" as="offset" />
          </mxGeometry>
        </mxCell>
        <mxCell id="DpbTsIQylc1d4dhlNPRi-4" value="&lt;b&gt;- administrador&lt;/b&gt;" style="edgeLabel;html=1;align=center;verticalAlign=middle;resizable=0;points=[];labelBackgroundColor=#d6d6d6;" parent="DpbTsIQylc1d4dhlNPRi-1" vertex="1" connectable="0">
          <mxGeometry x="-0.9229" relative="1" as="geometry">
            <mxPoint x="36" y="9" as="offset" />
          </mxGeometry>
        </mxCell>
        <mxCell id="DpbTsIQylc1d4dhlNPRi-5" value="&lt;b&gt;- usuário comum&lt;/b&gt;" style="edgeLabel;html=1;align=center;verticalAlign=middle;resizable=0;points=[];labelBackgroundColor=#d6d6d6;" parent="DpbTsIQylc1d4dhlNPRi-1" vertex="1" connectable="0">
          <mxGeometry x="0.873" y="-1" relative="1" as="geometry">
            <mxPoint x="11" y="-7" as="offset" />
          </mxGeometry>
        </mxCell>
        <mxCell id="DpbTsIQylc1d4dhlNPRi-6" value="0..*" style="edgeLabel;html=1;align=center;verticalAlign=middle;resizable=0;points=[];labelBackgroundColor=#d6d6d6;fontStyle=1" parent="DpbTsIQylc1d4dhlNPRi-1" vertex="1" connectable="0">
          <mxGeometry x="0.9446" y="1" relative="1" as="geometry">
            <mxPoint x="-11" as="offset" />
          </mxGeometry>
        </mxCell>
        <mxCell id="DpbTsIQylc1d4dhlNPRi-7" value="- nome_de_usuario: String" style="text;align=left;verticalAlign=top;spacingLeft=4;spacingRight=4;overflow=hidden;rotatable=0;points=[[0,0.5],[1,0.5]];portConstraint=eastwest;rounded=0;shadow=0;html=0;fillColor=none;" parent="S_oMJGFzTZTvN_zWF7Dp-0" vertex="1">
          <mxGeometry y="104" width="160" height="26" as="geometry" />
        </mxCell>
        <mxCell id="DpbTsIQylc1d4dhlNPRi-19" value="- foto_de_perfil: Blob" style="text;align=left;verticalAlign=top;spacingLeft=4;spacingRight=4;overflow=hidden;rotatable=0;points=[[0,0.5],[1,0.5]];portConstraint=eastwest;rounded=0;shadow=0;html=0;fillColor=none;" parent="S_oMJGFzTZTvN_zWF7Dp-0" vertex="1">
          <mxGeometry y="130" width="160" height="26" as="geometry" />
        </mxCell>
        <mxCell id="S_oMJGFzTZTvN_zWF7Dp-15" value="- biografia: String" style="text;align=left;verticalAlign=top;spacingLeft=4;spacingRight=4;overflow=hidden;rotatable=0;points=[[0,0.5],[1,0.5]];portConstraint=eastwest;rounded=0;shadow=0;html=0;fillColor=none;" parent="S_oMJGFzTZTvN_zWF7Dp-0" vertex="1">
          <mxGeometry y="156" width="160" height="26" as="geometry" />
        </mxCell>
        <mxCell id="DpbTsIQylc1d4dhlNPRi-45" value="- seguindo: List&lt;Usuário&gt;" style="text;align=left;verticalAlign=top;spacingLeft=4;spacingRight=4;overflow=hidden;rotatable=0;points=[[0,0.5],[1,0.5]];portConstraint=eastwest;rounded=0;shadow=0;html=0;fillColor=none;" parent="S_oMJGFzTZTvN_zWF7Dp-0" vertex="1">
          <mxGeometry y="182" width="160" height="26" as="geometry" />
        </mxCell>
        <mxCell id="DpbTsIQylc1d4dhlNPRi-47" value="- seguidores: List&lt;Usuário&gt;" style="text;align=left;verticalAlign=top;spacingLeft=4;spacingRight=4;overflow=hidden;rotatable=0;points=[[0,0.5],[1,0.5]];portConstraint=eastwest;rounded=0;shadow=0;html=0;fillColor=none;" parent="qVfFk3sxE2x1IZ7iYrnW-13" vertex="1">
          <mxGeometry y="208" width="160" height="26" as="geometry" />
        </mxCell>
        <mxCell id="qVfFk3sxE2x1IZ7iYrnW-14" value="" style="group" parent="WIyWlLk6GJQsqaUBKTNV-1" vertex="1" connectable="0">
          <mxGeometry x="-40" y="407.75" width="160" height="188.5" as="geometry" />
        </mxCell>
        <mxCell id="qVfFk3sxE2x1IZ7iYrnW-11" value="" style="whiteSpace=wrap;html=1;fillColor=default;strokeColor=none;" parent="qVfFk3sxE2x1IZ7iYrnW-14" vertex="1">
          <mxGeometry y="18.5" width="160" height="170" as="geometry" />
        </mxCell>
        <mxCell id="DpbTsIQylc1d4dhlNPRi-8" value="Postagem" style="swimlane;fontStyle=3;align=center;verticalAlign=top;childLayout=stackLayout;horizontal=1;startSize=26;horizontalStack=0;resizeParent=1;resizeLast=0;collapsible=1;marginBottom=0;rounded=0;shadow=0;strokeWidth=1;fillColor=default;" parent="qVfFk3sxE2x1IZ7iYrnW-14" vertex="1">
          <mxGeometry width="160" height="188.5" as="geometry">
            <mxRectangle x="220" y="560" width="160" height="26" as="alternateBounds" />
          </mxGeometry>
        </mxCell>
        <mxCell id="DpbTsIQylc1d4dhlNPRi-9" value="# id: int" style="text;align=left;verticalAlign=top;spacingLeft=4;spacingRight=4;overflow=hidden;rotatable=0;points=[[0,0.5],[1,0.5]];portConstraint=eastwest;fillColor=none;strokeWidth=1;perimeterSpacing=0;" parent="DpbTsIQylc1d4dhlNPRi-8" vertex="1">
          <mxGeometry y="26" width="160" height="26" as="geometry" />
        </mxCell>
        <mxCell id="DpbTsIQylc1d4dhlNPRi-10" value="- text: String" style="text;align=left;verticalAlign=top;spacingLeft=4;spacingRight=4;overflow=hidden;rotatable=0;points=[[0,0.5],[1,0.5]];portConstraint=eastwest;rounded=0;shadow=0;html=0;fillColor=none;" parent="DpbTsIQylc1d4dhlNPRi-8" vertex="1">
          <mxGeometry y="52" width="160" height="26" as="geometry" />
        </mxCell>
        <mxCell id="DpbTsIQylc1d4dhlNPRi-11" value="- data_criacao: Date" style="text;align=left;verticalAlign=top;spacingLeft=4;spacingRight=4;overflow=hidden;rotatable=0;points=[[0,0.5],[1,0.5]];portConstraint=eastwest;rounded=0;shadow=0;html=0;fillColor=none;" parent="DpbTsIQylc1d4dhlNPRi-8" vertex="1">
          <mxGeometry y="78" width="160" height="26" as="geometry" />
        </mxCell>
        <mxCell id="DpbTsIQylc1d4dhlNPRi-12" value="- curtirPostagem: Boolean" style="text;align=left;verticalAlign=top;spacingLeft=4;spacingRight=4;overflow=hidden;rotatable=0;points=[[0,0.5],[1,0.5]];portConstraint=eastwest;rounded=0;shadow=0;html=0;fillColor=none;" parent="DpbTsIQylc1d4dhlNPRi-8" vertex="1">
          <mxGeometry y="104" width="160" height="26" as="geometry" />
        </mxCell>
        <mxCell id="DpbTsIQylc1d4dhlNPRi-24" value="- curtidas: int" style="text;align=left;verticalAlign=top;spacingLeft=4;spacingRight=4;overflow=hidden;rotatable=0;points=[[0,0.5],[1,0.5]];portConstraint=eastwest;rounded=0;shadow=0;html=0;fillColor=none;" parent="DpbTsIQylc1d4dhlNPRi-8" vertex="1">
          <mxGeometry y="130" width="160" height="26" as="geometry" />
        </mxCell>
        <mxCell id="DpbTsIQylc1d4dhlNPRi-25" value="- autor: Usuário" style="text;align=left;verticalAlign=top;spacingLeft=4;spacingRight=4;overflow=hidden;rotatable=0;points=[[0,0.5],[1,0.5]];portConstraint=eastwest;rounded=0;shadow=0;html=0;fillColor=none;" parent="DpbTsIQylc1d4dhlNPRi-8" vertex="1">
          <mxGeometry y="156" width="160" height="26" as="geometry" />
        </mxCell>
      </root>
    </mxGraphModel>
  </diagram>
</mxfile>
